<?xml version="1.0" encoding="UTF-8"?>
<svg version="1.1" xmlns="http://www.w3.org/2000/svg" width="248" height="267">
<path d="M0 0 C81.84 0 163.68 0 248 0 C248 88.11 248 176.22 248 267 C166.16 267 84.32 267 0 267 C0 178.89 0 90.78 0 0 Z " fill="#FEFEFE" transform="translate(0,0)"/>
<path d="M0 0 C0.82347427 -0.00671722 1.64694855 -0.01343445 2.49537659 -0.02035522 C5.21223017 -0.0393195 7.92883633 -0.0432591 10.64575195 -0.04541016 C12.54279175 -0.05184087 14.43983055 -0.05856944 16.33686829 -0.06558228 C20.31379493 -0.07755234 24.29063474 -0.08126355 28.26757812 -0.08007812 C33.34370302 -0.07987534 38.41926549 -0.10713646 43.49525738 -0.14162254 C47.41513076 -0.16395344 51.33487034 -0.16791372 55.2548008 -0.16685867 C57.1249567 -0.16920689 58.99511674 -0.17798617 60.86520958 -0.19352341 C72.02644888 -0.2775461 80.62532283 0.11208485 90.4465332 5.91552734 C97.12957219 12.96984627 99.51006057 20.35673252 100.95825195 29.77490234 C101.71483683 33.37768748 102.93524508 36.07629332 104.6965332 39.29052734 C105.1296582 40.40427734 105.1296582 40.40427734 105.5715332 41.54052734 C107.22803639 44.11731008 108.76575137 44.37465802 111.6965332 45.29052734 C112.41067383 45.52642578 113.12481445 45.76232422 113.8605957 46.00537109 C118.3252848 47.42981952 122.61596467 48.4583376 127.2590332 49.10302734 C134.2876143 50.29768702 139.21708649 53.74750507 144.1340332 58.79052734 C148.33438743 65.51109411 148.4431305 72.59412311 147.6965332 80.29052734 C145.88159499 86.99108302 142.56329396 91.87013 136.61965942 95.59054565 C130.0610678 99.17821742 124.96399755 99.94201755 117.5637207 99.67333984 C116.01045578 99.65205521 116.01045578 99.65205521 114.42581177 99.63034058 C111.14008276 99.58290672 107.85644437 99.50215066 104.5715332 99.41552734 C81.19930101 97.83875119 81.19930101 97.83875119 59.3840332 104.60302734 C54.76044754 109.226613 53.52660383 112.63920107 53.3215332 119.10302734 C53.51826439 126.00572609 54.77934802 132.00771803 58.8840332 137.66552734 C64.68867559 143.08319357 72.94001701 144.16034219 80.5168457 145.66357422 C86.36069518 146.92868294 90.8080394 148.82004488 94.55981445 153.72802734 C95.03805664 154.57365234 95.51629883 155.41927734 96.0090332 156.29052734 C96.50016602 157.13615234 96.99129883 157.98177734 97.49731445 158.85302734 C99.49317265 162.9097554 99.82868835 166.39191981 99.87353516 170.89428711 C99.89278801 172.58238243 99.89278801 172.58238243 99.91242981 174.30458069 C99.91981674 175.51810715 99.92720367 176.73163361 99.93481445 177.98193359 C99.9428862 179.237556 99.95095795 180.49317841 99.95927429 181.78684998 C99.97310792 184.44737425 99.9841251 187.10777498 99.99169922 189.76831055 C100.0027098 193.14835723 100.03705492 196.52773578 100.07687092 199.90754795 C100.10958907 203.16144224 100.11383828 206.41539994 100.12231445 209.66943359 C100.13982254 210.86879044 100.15733063 212.06814728 100.17536926 213.30384827 C100.15270823 222.19192478 98.52097684 229.54949695 93.9465332 237.22802734 C88.04950794 242.63363383 81.05846214 244.61296205 73.2043457 244.50927734 C66.71162052 243.94293371 60.19807984 242.16720286 55.6965332 237.29052734 C51.55255552 231.11518805 48.58687784 226.19430637 48.53881836 218.64501953 C48.52855621 217.4866156 48.51829407 216.32821167 48.50772095 215.13470459 C48.49676895 213.25503998 48.49676895 213.25503998 48.4855957 211.33740234 C48.46471313 209.36816158 48.44381307 207.39892083 48.42189598 205.42969131 C48.36879668 200.57363984 48.32459096 195.71758172 48.29516602 190.86132812 C48.27822291 188.13797926 48.25348471 185.41491083 48.2203064 182.69171143 C48.18941273 180.12863529 48.16993559 177.5653898 48.16323853 175.00213623 C48.03223335 165.74194155 46.62124583 159.75730965 40.30200195 152.79833984 C34.43707109 147.2901566 27.12046751 147.16090703 19.48876953 147.19287109 C18.79355194 147.19433136 18.09833435 147.19579163 17.38204956 147.19729614 C15.88104853 147.20108381 14.38005189 147.20718081 12.87906837 147.21536255 C10.49380729 147.22821462 8.10860238 147.23466508 5.72331238 147.23950195 C-0.20377498 147.25282127 -6.13080911 147.27694482 -12.05786133 147.30090332 C-17.0666252 147.32075469 -22.07536848 147.33634885 -27.08416176 147.34646606 C-29.4165126 147.35287639 -31.74877722 147.36538649 -34.08110046 147.37817383 C-58.62011571 147.46452036 -58.62011571 147.46452036 -68.3034668 140.29052734 C-74.71403539 133.61547556 -75.68722431 127.99339666 -75.56518555 118.86865234 C-75.10282813 112.54746739 -73.5473697 108.54223513 -69.05737305 104.03662109 C-62.16622029 98.1733724 -56.22294091 96.02381184 -47.10571289 96.0793457 C-46.0821167 96.08131706 -46.0821167 96.08131706 -45.0378418 96.08332825 C-42.8007168 96.0897733 -40.56394374 96.11019751 -38.3269043 96.13037109 C-36.75379813 96.13665434 -35.18068746 96.14189015 -33.60757446 96.14613342 C-29.47300893 96.1593961 -25.3385929 96.18378888 -21.20410156 96.21148682 C-14.60991386 96.25467253 -8.01569211 96.28459869 -1.42140579 96.30752754 C0.86102033 96.31759723 3.14331309 96.3346686 5.4256897 96.3525238 C23.9698912 97.06219875 23.9698912 97.06219875 40.6965332 90.29052734 C45.26389493 85.44377913 45.85214517 80.42578831 45.8840332 73.97802734 C45.89821289 72.68251953 45.91239258 71.38701172 45.92700195 70.05224609 C45.62034566 65.04699163 44.69182003 61.58741624 41.6340332 57.60302734 C32.89185493 50.720887 21.8385778 51.84640155 11.28198242 51.85473633 C0.63594261 51.83661849 -10.50592852 51.66826033 -19.3659668 44.97802734 C-24.95281324 37.22853066 -28.00506647 30.7028291 -26.8269043 21.02880859 C-25.20166024 12.52659902 -20.23822495 7.27232662 -13.3034668 2.29052734 C-8.93846364 0.06091894 -4.79932958 -0.00564583 0 0 Z " fill="#D5FDFC" transform="translate(86.303466796875,10.70947265625)"/>
<path d="M0 0 C3.27086929 4.90630393 2.5387828 10.26628679 2 16 C0.19327714 22.69952367 -3.13782932 27.58247581 -9.07687378 31.30001831 C-15.6354654 34.88769008 -20.73253565 35.65149021 -28.1328125 35.3828125 C-29.16832245 35.36862274 -30.2038324 35.35443298 -31.27072144 35.33981323 C-34.55645045 35.29237938 -37.84008883 35.21162332 -41.125 35.125 C-64.49723219 33.54822384 -64.49723219 33.54822384 -86.3125 40.3125 C-90.93608566 44.93608566 -92.16992937 48.34867372 -92.375 54.8125 C-92.17826881 61.71519875 -90.91718519 67.71719069 -86.8125 73.375 C-83.87734267 76.11448017 -81.72754659 77.19703511 -77.96484375 78.359375 C-75.85137688 79.04845764 -73.96521112 79.96706052 -72 81 C-79.21830918 80.67263904 -84.52741962 79.53659108 -89.6953125 74.2734375 C-94.94386961 67.90924507 -96.26872223 61.69682122 -96.0625 53.5625 C-95.29095457 47.17482156 -92.4469794 42.57452183 -88 38 C-82.84154155 34.43528831 -77.64740007 32.87688427 -71.40209961 32.87402344 C-70.25337875 32.87021667 -69.1046579 32.86640991 -67.92112732 32.86248779 C-66.67742874 32.86146057 -65.43373016 32.86043335 -64.15234375 32.859375 C-62.19359958 32.84573793 -60.2348551 32.83207038 -58.276124 32.81666946 C-53.44975727 32.77878613 -48.62365172 32.74737167 -43.79711914 32.74951172 C-41.0915722 32.75015008 -38.38670189 32.73755281 -35.68128967 32.71051025 C-33.13814398 32.68534211 -30.5947266 32.67867496 -28.05149841 32.69329834 C-20.43941982 32.58657059 -14.2615491 31.58220735 -8 27 C-6.9927814 25.67211127 -5.99133141 24.33979096 -5 23 C-4.34 23 -3.68 23 -3 23 C-0.05602712 15.2370239 0.34937193 8.25552919 0 0 Z " fill="#2D5856" transform="translate(232,75)"/>
<path d="M0 0 C3.27438182 0.29869576 4.6603424 0.63856075 6.94921875 3.07421875 C7.52285156 3.93660156 8.09648437 4.79898438 8.6875 5.6875 C9.55955078 6.96173828 9.55955078 6.96173828 10.44921875 8.26171875 C13.15320339 13.0362609 14.24815965 17.36305542 14.29052734 22.83081055 C14.30328705 23.95605637 14.31604675 25.08130219 14.32919312 26.24064636 C14.33141876 27.44385025 14.33364441 28.64705414 14.3359375 29.88671875 C14.3425943 31.13951126 14.3492511 32.39230377 14.35610962 33.68305969 C14.36622289 36.33173858 14.37179399 38.98000687 14.37060547 41.62866211 C14.37044318 44.32587576 14.38428948 47.02240844 14.41162109 49.71948242 C14.44847065 53.62960315 14.45808793 57.53894109 14.4609375 61.44921875 C14.47530853 62.64230148 14.48967957 63.83538422 14.50448608 65.06462097 C14.45671998 73.9219505 12.80881266 81.28520732 8.25 88.9375 C2.3507482 94.34514749 -4.63360796 96.31353677 -12.48828125 96.22265625 C-18.67932455 95.67383904 -24.17263249 93.9436389 -29 90 C-28.505 89.01 -28.505 89.01 -28 88 C-27.484375 88.45375 -26.96875 88.9075 -26.4375 89.375 C-20.5443109 93.30379273 -13.87037387 93.60758408 -7 93 C-4.21433941 92.08742694 -4.21433941 92.08742694 -2 91 C-0.68 91 0.64 91 2 91 C2 90.34 2 89.68 2 89 C2.66 89 3.32 89 4 89 C4.28875 88.360625 4.5775 87.72125 4.875 87.0625 C6 85 6 85 8 84 C11.54608653 76.88888994 11.43652214 70.17400584 11.3984375 62.33984375 C11.40274277 60.38408165 11.40274277 60.38408165 11.40713501 58.3888092 C11.41153545 55.6411766 11.40520072 52.89383838 11.39111328 50.14624023 C11.37400529 46.64042501 11.38388651 43.13529817 11.40183067 39.62950802 C11.41533041 36.262066 11.40585582 32.89480527 11.3984375 29.52734375 C11.40451019 28.27614243 11.41058289 27.0249411 11.4168396 25.73582458 C11.35061732 17.50821735 10.68655041 11.46587475 4.9375 5.1875 C4.43089844 4.62417969 3.92429688 4.06085938 3.40234375 3.48046875 C2.28663375 2.3026022 1.14720931 1.14720931 0 0 Z " fill="#144440" transform="translate(172,159)"/>
<path d="M0 0 C6.49647471 1.40120043 6.49647471 1.40120043 9.11872864 4.5196228 C12.76861983 7.66167565 15.52284168 7.69338171 20.11987305 7.61181641 C20.92384018 7.61748123 21.72780731 7.62314606 22.55613708 7.62898254 C25.20847504 7.64246263 27.85944078 7.62154772 30.51171875 7.6015625 C32.36392651 7.60706567 34.21612817 7.61519297 36.0683136 7.62582397 C40.94556552 7.64871421 45.82236949 7.6444929 50.699646 7.63201904 C58.48741725 7.61372407 66.27492259 7.6238411 74.06263161 7.65787888 C76.77134705 7.66394411 79.47948598 7.65076737 82.18815613 7.63589478 C102.31457007 7.6203846 102.31457007 7.6203846 107.74931335 12.60415649 C108.16203995 13.06478485 108.57476654 13.52541321 109 14 C108.32812149 13.78642853 107.65624298 13.57285706 106.96400452 13.35281372 C97.98100324 10.77606484 89.48382663 10.62656879 80.24609375 10.7421875 C78.65292539 10.75034958 77.05974867 10.75700332 75.46656799 10.76223755 C71.30327302 10.77921443 67.14031377 10.81337019 62.97717285 10.85229492 C56.31345452 10.91186962 49.64957 10.94567509 42.9856739 10.97806168 C40.67985261 10.99183648 38.37421265 11.01345179 36.06846619 11.03634644 C13.86219809 11.21585898 13.86219809 11.21585898 6.9375 7.1875 C6.03902344 6.68605469 5.14054687 6.18460938 4.21484375 5.66796875 C1.8981775 3.92331886 1.02753356 2.67623147 0 0 Z " fill="#9CBDBA" transform="translate(16,147)"/>
<path d="M0 0 C3 1 3 1 4.375 3.375 C6.33621241 6.54311236 7.55485747 7.57700635 11 9 C14.89322641 9.38932264 18.60466624 9.29069453 22.4375 8.4921875 C25.18205719 7.9650317 27.70727543 7.86715527 30.5 7.875 C31.87671875 7.87113281 31.87671875 7.87113281 33.28125 7.8671875 C35.95004454 7.99755965 38.39865153 8.40621394 41 9 C41 9.33 41 9.66 41 10 C41.61746094 10.10957031 42.23492187 10.21914063 42.87109375 10.33203125 C51.48402425 11.94449769 59.72051241 13.94892698 67 19 C68.4375 21.75 68.4375 21.75 69 24 C68.59910156 23.60167969 68.19820313 23.20335938 67.78515625 22.79296875 C67.21667969 22.26316406 66.64820313 21.73335937 66.0625 21.1875 C65.51722656 20.66542969 64.97195312 20.14335938 64.41015625 19.60546875 C55.44766275 13.63531506 44.91170652 14.55605606 34.58544922 14.56420898 C11.37329718 14.52470566 11.37329718 14.52470566 3.8125 7.5625 C2.06091661 5.08612348 0.90787261 2.88868558 0 0 Z " fill="#719C9C" transform="translate(63,48)"/>
<path d="M0 0 C-4.34258871 4.8689631 -8.31485738 7.66411181 -14.82687378 8.25765991 C-18.2727983 8.3469421 -21.70554208 8.33705136 -25.15234375 8.29296875 C-26.40761368 8.28872391 -27.66288361 8.28447906 -28.95619202 8.28010559 C-32.27229337 8.26620628 -35.58776052 8.23931502 -38.90368652 8.20599365 C-42.2957617 8.1751492 -45.68790274 8.16156975 -49.08007812 8.14648438 C-55.72022553 8.11347638 -62.3600762 8.06332215 -69 8 C-68.67 7.01 -68.34 6.02 -68 5 C-64.58175658 4.22195755 -61.4838339 3.89251779 -57.98193359 3.96240234 C-57.01097748 3.97927094 -56.04002136 3.99613953 -55.03964233 4.01351929 C-53.48474594 4.0493663 -53.48474594 4.0493663 -51.8984375 4.0859375 C-50.82502106 4.10717682 -49.75160461 4.12841614 -48.6456604 4.15029907 C-46.38123038 4.19647748 -44.11685485 4.24539865 -41.85253906 4.296875 C-38.38097276 4.37486582 -34.90931535 4.44195417 -31.4375 4.5078125 C-29.23696539 4.55403608 -27.03644389 4.6008895 -24.8359375 4.6484375 C-23.79529144 4.66828705 -22.75464539 4.6881366 -21.6824646 4.70858765 C-20.23548691 4.74334702 -20.23548691 4.74334702 -18.75927734 4.77880859 C-17.91054047 4.79736908 -17.06180359 4.81592957 -16.18734741 4.83505249 C-14 5 -14 5 -11 6 C-11 5.34 -11 4.68 -11 4 C-7.28157456 1.05984965 -4.79828917 -0.56450461 0 0 Z " fill="#B7EDED" transform="translate(226,100)"/>
<path d="M0 0 C-1.65 0.33 -3.3 0.66 -5 1 C-5 1.66 -5 2.32 -5 3 C-11.45954549 3.0253794 -17.9190781 3.04287928 -24.37866211 3.05493164 C-26.5756071 3.05995675 -28.77254876 3.06677788 -30.96948242 3.07543945 C-34.12940292 3.08758475 -37.28927915 3.09324659 -40.44921875 3.09765625 C-41.42960617 3.10281754 -42.40999359 3.10797882 -43.42008972 3.11329651 C-44.34066666 3.11337204 -45.26124359 3.11344757 -46.2097168 3.11352539 C-47.0157988 3.115746 -47.8218808 3.11796661 -48.65238953 3.12025452 C-51.18341716 2.9906046 -53.52227105 2.51910144 -56 2 C-58.42109498 1.85436372 -60.84506572 1.75343432 -63.26953125 1.68359375 C-63.95053391 1.66281265 -64.63153656 1.64203156 -65.33317566 1.62062073 C-67.49285508 1.55562122 -69.65264846 1.49647288 -71.8125 1.4375 C-73.28321456 1.3942675 -74.75391791 1.35065175 -76.22460938 1.30664062 C-79.81628717 1.19999141 -83.40809082 1.09858651 -87 1 C-87 0.67 -87 0.34 -87 0 C-86.13937454 0.00222061 -85.27874908 0.00444122 -84.39204407 0.00672913 C-76.22863524 0.02687689 -68.06523493 0.04204736 -59.90180683 0.05181217 C-55.7062555 0.05700131 -51.51072493 0.06402568 -47.31518555 0.07543945 C-43.25623054 0.08641088 -39.19729535 0.09230662 -35.13832664 0.09487724 C-33.60001502 0.09670608 -32.06170431 0.10027644 -30.52340126 0.10573006 C-22.15196691 0.13419234 -13.88669233 -0.03587279 -5.54606628 -0.88233948 C-3 -1 -3 -1 0 0 Z " fill="#C3E9E9" transform="translate(120,107)"/>
<path d="M0 0 C3.27086929 4.90630393 2.5387828 10.26628679 2 16 C0.19227975 22.70322212 -3.141382 27.59004871 -9.08786011 31.30400085 C-15.56657365 34.843749 -20.51205777 35.6431309 -27.8203125 35.26953125 C-29.29732132 35.22562508 -29.29732132 35.22562508 -30.8041687 35.18083191 C-33.91254775 35.0828002 -37.01806599 34.94830775 -40.125 34.8125 C-42.24731332 34.73911008 -44.36971119 34.66812383 -46.4921875 34.59960938 C-51.66285091 34.42749452 -56.83127815 34.22269662 -62 34 C-62 33.67 -62 33.34 -62 33 C-60.71947754 32.99589111 -59.43895508 32.99178223 -58.11962891 32.98754883 C-53.32951627 32.96563529 -48.54021083 32.9112197 -43.75048828 32.84741211 C-41.68481228 32.82433824 -39.61902041 32.80986152 -37.55322266 32.80444336 C-34.56861031 32.79507591 -31.58579403 32.75391601 -28.6015625 32.70703125 C-27.23531235 32.71293022 -27.23531235 32.71293022 -25.84146118 32.71894836 C-19.07440209 32.56792317 -13.60541318 30.88147289 -8 27 C-6.98794036 25.6757972 -5.98538803 24.34416822 -5 23 C-4.34 23 -3.68 23 -3 23 C-0.05602712 15.2370239 0.34937193 8.25552919 0 0 Z " fill="#264D4A" transform="translate(232,75)"/>
<path d="M0 0 C9.80552475 -0.04638693 19.61102329 -0.08190153 29.41663551 -0.10362434 C33.97001655 -0.11405139 38.52332239 -0.12819091 43.07666016 -0.15087891 C47.47274894 -0.17264573 51.86876549 -0.18457674 56.26490402 -0.18975449 C57.94019075 -0.19344335 59.61547363 -0.20064677 61.29072952 -0.21146011 C63.64133427 -0.22602612 65.99164237 -0.22797582 68.34228516 -0.22705078 C69.37591187 -0.23783661 69.37591187 -0.23783661 70.43041992 -0.24884033 C74.65543179 -0.23090684 78.06938661 0.46321632 82 2 C81.67 2.99 81.34 3.98 81 5 C78.5625 4.625 78.5625 4.625 76 4 C75.505 3.01 75.505 3.01 75 2 C50.25 1.67 25.5 1.34 0 1 C0 0.67 0 0.34 0 0 Z " fill="#D0E6E6" transform="translate(88,11)"/>
<path d="M0 0 C3.19691936 0.30813681 4.6550719 0.65161571 6.94921875 2.96875 C7.80966797 4.22171875 7.80966797 4.22171875 8.6875 5.5 C9.55955078 6.72203125 9.55955078 6.72203125 10.44921875 7.96875 C14.3394157 15.57276218 14.23382545 23.44852029 13.9765625 31.81640625 C13.95153656 32.91347397 13.92651062 34.01054169 13.90072632 35.14085388 C13.8191234 38.61507863 13.72230444 42.08868315 13.625 45.5625 C13.5666994 47.93031391 13.50939753 50.29815264 13.453125 52.66601562 C13.31363422 58.44434765 13.16167783 64.22224846 13 70 C12.67 70 12.34 70 12 70 C11.99413376 69.33902817 11.98826752 68.67805634 11.98222351 67.99705505 C11.91816645 61.10216882 11.83371455 54.20774401 11.73754883 47.31323242 C11.70434558 44.74200534 11.67629942 42.17070618 11.65356445 39.59936523 C11.61993486 35.89796302 11.5676123 32.1972186 11.51171875 28.49609375 C11.50532883 27.35103867 11.4989389 26.20598358 11.49235535 25.02622986 C11.3475592 17.12159788 10.4575088 11.21574491 4.9375 5.1875 C4.43089844 4.62417969 3.92429688 4.06085938 3.40234375 3.48046875 C2.28663375 2.3026022 1.14720931 1.14720931 0 0 Z " fill="#4C8C89" transform="translate(172,159)"/>
<path d="M0 0 C2.8984375 0.28515625 2.8984375 0.28515625 6.375 1.0625 C8.08816406 1.42021484 8.08816406 1.42021484 9.8359375 1.78515625 C13.54094863 3.20769756 14.89725479 4.68014857 17 8 C17 8.66 17 9.32 17 10 C17.99 10.33 18.98 10.66 20 11 C22.34264206 14.24365824 23.43589129 17.05123902 24 21 C22.68 21 21.36 21 20 21 C19.3490741 19.75264433 18.70448331 18.50198168 18.0625 17.25 C17.70285156 16.55390625 17.34320313 15.8578125 16.97265625 15.140625 C16.04441818 13.09775567 15.46833422 11.18884624 15 9 C13.68 9 12.36 9 11 9 C10.67 7.35 10.34 5.7 10 4 C4.06 3.01 4.06 3.01 -2 2 C-1.34 1.34 -0.68 0.68 0 0 Z " fill="#BAEAE9" transform="translate(160,155)"/>
<path d="M0 0 C5.64078597 1.21664011 7.95163413 2.73280354 12 7 C15.64316425 8.36962254 19.54375986 8.22176586 23.390625 8.31640625 C24.09523865 8.33718735 24.79985229 8.35796844 25.52581787 8.37937927 C27.76711681 8.44453837 30.00852864 8.50360248 32.25 8.5625 C33.77344897 8.60571726 35.29688671 8.64933257 36.8203125 8.69335938 C40.54675591 8.80018491 44.27332494 8.90154639 48 9 C48 9.33 48 9.66 48 10 C44.22972796 10.20010711 40.45879083 10.38270332 36.6875 10.5625 C35.63498047 10.61857422 34.58246094 10.67464844 33.49804688 10.73242188 C14.53561493 11.60761104 14.53561493 11.60761104 6.9375 7.1875 C6.03902344 6.68605469 5.14054687 6.18460938 4.21484375 5.66796875 C1.8981775 3.92331886 1.02753356 2.67623147 0 0 Z " fill="#365E59" transform="translate(16,147)"/>
<path d="M0 0 C0.99 0 1.98 0 3 0 C2.21551797 6.58964904 0.16259019 11.67008565 -5 16 C-5.66 16 -6.32 16 -7 16 C-7 16.66 -7 17.32 -7 18 C-9.64 18.66 -12.28 19.32 -15 20 C-15 19.34 -15 18.68 -15 18 C-14.34 18 -13.68 18 -13 18 C-13 17.34 -13 16.68 -13 16 C-9.535 15.505 -9.535 15.505 -6 15 C-6 13.35 -6 11.7 -6 10 C-5.34 10 -4.68 10 -4 10 C-4 9.34 -4 8.68 -4 8 C-3.34 8 -2.68 8 -2 8 C-1.7834375 6.576875 -1.7834375 6.576875 -1.5625 5.125 C-1 2 -1 2 0 0 Z " fill="#B6ECE8" transform="translate(181,232)"/>
<path d="M0 0 C0 8.25 0 16.5 0 25 C-0.66 24.67 -1.32 24.34 -2 24 C-3.61988101 16.48792023 -4.81109124 8.54621349 -3 1 C-1 0 -1 0 0 0 Z " fill="#B9E3E5" transform="translate(184,195)"/>
<path d="M0 0 C0.680625 0.45375 1.36125 0.9075 2.0625 1.375 C9.53390467 5.50811748 17.9206809 6.32511068 26.125 4 C27.07375 3.67 28.0225 3.34 29 3 C29 3.99 29 4.98 29 6 C21.07784923 9.25011314 14.27042745 8.38665183 6.26171875 5.94921875 C3.81027285 4.92037358 1.98464991 3.76665633 0 2 C0 1.34 0 0.68 0 0 Z " fill="#3D5F5D" transform="translate(143,247)"/>
<path d="M0 0 C1.44952585 2.8990517 1.39046033 5.65175476 1.625 8.875 C1.72039063 10.10992187 1.81578125 11.34484375 1.9140625 12.6171875 C1.98624665 15.45861832 1.89002716 17.35365258 1 20 C0.67 20.99 0.34 21.98 0 23 C-3.10833049 16.41033937 -3.4778454 11.15588301 -2 4 C-0.94921875 1.671875 -0.94921875 1.671875 0 0 Z " fill="#C9E4E3" transform="translate(62,25)"/>
<path d="M0 0 C12.87 0 25.74 0 39 0 C39.495 1.485 39.495 1.485 40 3 C38.84628906 2.84660156 37.69257812 2.69320312 36.50390625 2.53515625 C29.34056915 1.73922991 22.1365016 1.63881896 14.9375 1.4375 C13.4850161 1.39421245 12.03254199 1.35059526 10.58007812 1.30664062 C7.05349009 1.20062746 3.52679065 1.09907252 0 1 C0 0.67 0 0.34 0 0 Z " fill="#B2D5D4" transform="translate(33,107)"/>
<path d="M0 0 C-2.67667893 1.73196872 -5.0003996 3.00012233 -8.0625 3.9375 C-11.27388697 5.0990655 -12.78689143 6.44641319 -15 9 C-15 8.34 -15 7.68 -15 7 C-15.66 6.67 -16.32 6.34 -17 6 C-6.38709677 -4.25806452 -6.38709677 -4.25806452 0 0 Z " fill="#D0F3F2" transform="translate(35,109)"/>
<path d="M0 0 C3.26543073 4.89814609 2.55599319 10.27459395 2 16 C0.72650028 20.28304388 -0.8270056 23.8270056 -4 27 C-4.66 26.67 -5.32 26.34 -6 26 C-5.505 24.515 -5.505 24.515 -5 23 C-4.34 23 -3.68 23 -3 23 C-0.05602712 15.2370239 0.34937193 8.25552919 0 0 Z " fill="#345551" transform="translate(232,75)"/>
<path d="M0 0 C4.99260228 0.43062877 10.8945717 1.13949848 14.74609375 4.54296875 C15.8125 6.1875 15.8125 6.1875 17 9 C15.02 9 13.04 9 11 9 C10.67 7.35 10.34 5.7 10 4 C4.06 3.01 4.06 3.01 -2 2 C-1.34 1.34 -0.68 0.68 0 0 Z " fill="#A4CFCC" transform="translate(160,155)"/>
<path d="M0 0 C3.80625982 1.49531636 5.77940501 3.58980056 8 7 C8.25 9.8125 8.25 9.8125 8 12 C7.01 11.67 6.02 11.34 5 11 C4.67 11.99 4.34 12.98 4 14 C3.4465236 11.92446352 3 10.15634036 3 8 C2.34 7.34 1.68 6.68 1 6 C1 4.68 1 3.36 1 2 C0.67 1.34 0.34 0.68 0 0 Z " fill="#99C6C3" transform="translate(224,65)"/>
<path d="M0 0 C1.98 0.66 3.96 1.32 6 2 C6 2.99 6 3.98 6 5 C6.66 5 7.32 5 8 5 C8.33 4.34 8.66 3.68 9 3 C9.87867729 6.73437848 10.08912219 10.16774573 10 14 C9.34 13.01 8.68 12.02 8 11 C6.20340917 8.67231535 4.38106765 6.36605031 2.55859375 4.05859375 C1 2 1 2 0 0 Z " fill="#C2EAE9" transform="translate(125,161)"/>
<path d="M0 0 C3.38257277 0.28576908 4.67862943 0.6413049 6.984375 3.21484375 C7.56703125 4.11332031 8.1496875 5.01179687 8.75 5.9375 C9.34296875 6.83339844 9.9359375 7.72929687 10.546875 8.65234375 C12.87516044 12.41390167 13.09644596 14.56348573 13 19 C11 16 11 16 9.75 12.75 C7.62937888 7.62788436 3.87191648 3.87191648 0 0 Z " fill="#476C69" transform="translate(172,159)"/>
<path d="M0 0 C3.20825562 -0.05849554 6.41637233 -0.09376162 9.625 -0.125 C10.52863281 -0.14175781 11.43226563 -0.15851562 12.36328125 -0.17578125 C17.32750152 -0.21201643 21.34411907 0.03555854 26 2 C25.67 2.99 25.34 3.98 25 5 C22.5625 4.625 22.5625 4.625 20 4 C19.67 3.34 19.34 2.68 19 2 C12.73 1.67 6.46 1.34 0 1 C0 0.67 0 0.34 0 0 Z " fill="#C1E3E2" transform="translate(144,11)"/>
<path d="M0 0 C0.99 0 1.98 0 3 0 C2.45660208 4.56454251 1.20536179 7.9728176 -1 12 C-1.66 12 -2.32 12 -3 12 C-2.14285714 3.42857143 -2.14285714 3.42857143 0 0 Z " fill="#ACD6D7" transform="translate(181,232)"/>
<path d="M0 0 C0.33 0 0.66 0 1 0 C1 6.27 1 12.54 1 19 C0.01 19.33 -0.98 19.66 -2 20 C-2.31620422 13.20160929 -1.12676382 6.69016016 0 0 Z " fill="#C5F4F8" transform="translate(183,176)"/>
<path d="M0 0 C4.55015893 1.51671964 6.50057264 5.16891053 9 9 C8.67 9.66 8.34 10.32 8 11 C7.01 11 6.02 11 5 11 C1.8217901 7.7309841 1 6.67834007 1 2 C0.67 1.34 0.34 0.68 0 0 Z " fill="#B0D0CF" transform="translate(174,16)"/>
<path d="M0 0 C5.61514362 1.21110941 8.0143531 2.69119255 12 7 C14.16620544 8.29519995 14.16620544 8.29519995 16 9 C13 10 13 10 10.37109375 8.92578125 C9.40300781 8.39339844 8.43492188 7.86101562 7.4375 7.3125 C6.46683594 6.79300781 5.49617188 6.27351562 4.49609375 5.73828125 C1.94620247 3.96253537 1.05692011 2.87057001 0 0 Z " fill="#6C908E" transform="translate(16,147)"/>
<path d="M0 0 C9.73004484 -0.92017937 9.73004484 -0.92017937 12.84375 1.3359375 C14.1875 3 14.1875 3 16 6 C13 6 13 6 10.8125 4.625 C7.25212952 2.56789705 4.00898823 1.88333639 0 1 C0 0.67 0 0.34 0 0 Z " fill="#B0E8E4" transform="translate(114,60)"/>
<path d="M0 0 C-3.82180842 4.4008703 -6.47371099 5.80805531 -12 7 C-10.1896099 1.56882971 -5.56166796 -0.65431388 0 0 Z " fill="#BEF2EE" transform="translate(226,100)"/>
<path d="M0 0 C0.66 0 1.32 0 2 0 C2.66 3.96 3.32 7.92 4 12 C3.34 12 2.68 12 2 12 C1.67 12.66 1.34 13.32 1 14 C-0.04976964 10.85069107 -0.10131595 8.61185544 -0.0625 5.3125 C-0.05347656 4.31863281 -0.04445313 3.32476562 -0.03515625 2.30078125 C-0.02355469 1.54152344 -0.01195312 0.78226563 0 0 Z " fill="#CBFAF7" transform="translate(12,128)"/>
<path d="M0 0 C0.66 0 1.32 0 2 0 C2 0.66 2 1.32 2 2 C2.66 2.33 3.32 2.66 4 3 C2.07423885 5.43929746 0.19909405 7.80090595 -2 10 C-2.66 8.68 -3.32 7.36 -4 6 C-3.525625 5.38125 -3.05125 4.7625 -2.5625 4.125 C-0.97582559 2.09294454 -0.97582559 2.09294454 0 0 Z " fill="#B5EBE8" transform="translate(140,112)"/>
<path d="M0 0 C0.515625 0.2475 1.03125 0.495 1.5625 0.75 C1.2325 1.74 0.9025 2.73 0.5625 3.75 C-3.0675 4.41 -6.6975 5.07 -10.4375 5.75 C-8.5568632 1.9887264 -4.12158654 -0.42272682 0 0 Z " fill="#C6ECEB" transform="translate(130.4375,100.25)"/>
<path d="M0 0 C2 3 2 3 1.8125 5.125 C1.544375 5.74375 1.27625 6.3625 1 7 C0.01 7.33 -0.98 7.66 -2 8 C-2.66 7.34 -3.32 6.68 -4 6 C-2.25 1.125 -2.25 1.125 0 0 Z " fill="#C9EFF0" transform="translate(228,91)"/>
<path d="M0 0 C0 0.33 0 0.66 0 1 C-1.62318979 1.36237263 -3.2486358 1.71465157 -4.875 2.0625 C-5.77992187 2.25972656 -6.68484375 2.45695313 -7.6171875 2.66015625 C-10 3 -10 3 -12 2 C-12 1.34 -12 0.68 -12 0 C-7.44729118 -2.48329572 -4.775353 -1.68541871 0 0 Z " fill="#CEF2F0" transform="translate(85,13)"/>
<path d="M0 0 C5.625 -0.25 5.625 -0.25 9 2 C11.27912938 2.45394552 11.27912938 2.45394552 13.6875 2.625 C14.49574219 2.69976562 15.30398437 2.77453125 16.13671875 2.8515625 C16.75160156 2.90054688 17.36648437 2.94953125 18 3 C18 3.33 18 3.66 18 4 C11.19796625 4.37634203 6.24309927 3.77471079 0 1 C0 0.67 0 0.34 0 0 Z " fill="#A2D1CD" transform="translate(147,249)"/>
<path d="M0 0 C1.9453125 0.2421875 1.9453125 0.2421875 4.125 0.875 C4.84945312 1.07867187 5.57390625 1.28234375 6.3203125 1.4921875 C6.87460938 1.65976562 7.42890625 1.82734375 8 2 C7.67 2.66 7.34 3.32 7 4 C3.9375 4.625 3.9375 4.625 1 5 C1 4.34 1 3.68 1 3 C0.01 2.67 -0.98 2.34 -2 2 C-1.34 1.34 -0.68 0.68 0 0 Z " fill="#CFF9F7" transform="translate(198,58)"/>
<path d="M0 0 C0.66 0 1.32 0 2 0 C2.33 0.99 2.66 1.98 3 3 C-0.625 6 -0.625 6 -4 6 C-2.84826645 3.53199953 -1.95216435 1.95216435 0 0 Z " fill="#DAF5F4" transform="translate(68,17)"/>
<path d="M0 0 C0.33 0 0.66 0 1 0 C1.19627391 1.58226965 1.38165538 3.16589271 1.5625 4.75 C1.66691406 5.63171875 1.77132812 6.5134375 1.87890625 7.421875 C2.04710645 11.00291148 1.12591986 13.62224043 0 17 C-1.54897985 13.9020403 -0.83239539 10.73783448 -0.5625 7.375 C-0.51029297 6.66859375 -0.45808594 5.9621875 -0.40429688 5.234375 C-0.27458793 3.48920013 -0.13795046 1.74454275 0 0 Z " fill="#B8DCDC" transform="translate(62,31)"/>
<path d="M0 0 C0.99 0 1.98 0 3 0 C6.875 6.75 6.875 6.75 8 9 C4.20620942 7.50958227 2.31656242 5.30937488 0 2 C0 1.34 0 0.68 0 0 Z " fill="#345555" transform="translate(138,141)"/>
<path d="M0 0 C0.66 0.33 1.32 0.66 2 1 C-1.01887244 4.48331435 -3.56909529 5.79157144 -8 7 C-5.42215154 4.35247996 -3.08351902 2.05567935 0 0 Z " fill="#D9EAEA" transform="translate(150,112)"/>
<path d="M0 0 C4.67692308 1.47692308 4.67692308 1.47692308 6.3125 4.125 C6.539375 4.74375 6.76625 5.3625 7 6 C5.35 5.01 3.7 4.02 2 3 C1.67 3.66 1.34 4.32 1 5 C0.34 3.68 -0.32 2.36 -1 1 C-0.67 0.67 -0.34 0.34 0 0 Z " fill="#BCDDDD" transform="translate(186,48)"/>
<path d="M0 0 C2.875 0.5625 2.875 0.5625 6 2 C7.375 5.625 7.375 5.625 8 9 C5.06799526 6.14723863 2.35684596 3.34920216 0 0 Z " fill="#7DABA9" transform="translate(125,161)"/>
<path d="M0 0 C3 1 3 1 4 3 C4.06950541 4.54023996 4.08452357 6.08334988 4.0625 7.625 C4.05347656 8.44226563 4.04445312 9.25953125 4.03515625 10.1015625 C4.02355469 10.72804688 4.01195312 11.35453125 4 12 C3.67 12 3.34 12 3 12 C2.67 9.36 2.34 6.72 2 4 C1.34 4 0.68 4 0 4 C0 2.68 0 1.36 0 0 Z " fill="#C8F4F1" transform="translate(229,76)"/>
<path d="M0 0 C0.66 0 1.32 0 2 0 C1.5206753 4.31392226 0.2542015 6.16569547 -3 9 C-2.44271087 5.65626525 -1.64826111 2.96687001 0 0 Z " fill="#16312E" transform="translate(181,240)"/>
<path d="M0 0 C1.32 0 2.64 0 4 0 C3.34 1.98 2.68 3.96 2 6 C1.34 5.67 0.68 5.34 0 5 C0 4.34 0 3.68 0 3 C-0.66 2.67 -1.32 2.34 -2 2 C-1.34 1.34 -0.68 0.68 0 0 Z " fill="#C7F3F2" transform="translate(137,232)"/>
</svg>
